<svg class="logo-victrix" width="143" height="25" viewBox="0 0 143 25" fill="none" xmlns="http://www.w3.org/2000/svg">
  <path class="letter-main" d="M114.834 24.5845V0.413818H109.441V24.5845H114.834Z" fill="#002C46"></path>
  <path class="letter-main" d="M94.5711 12.8165C94.5711 4.46992 95.3029 5.22371 104.967 5.21049V0.462891H93.1555C90.5216 0.462891 89.016 2.36533 88.9854 4.1393V24.5428H94.5807V12.8165H94.5711Z" fill="#002C46"></path>
  <path class="letter-main" d="M24.5785 0.413818H18.7667L12.3592 17.4375L5.95163 0.413818H0L9.90917 24.7583H14.6693L24.5785 0.413818Z" fill="#002C46"></path>
  <path class="letter-main" d="M33.9978 24.5845V0.413818H28.6055V24.5845H33.9978Z" fill="#002C46"></path>
  <path class="letter-main" d="M61.6564 20.6831L58.2237 17.2655C57.3567 18.0793 56.3856 18.778 55.3351 19.3436C54.3684 19.8474 53.1845 20.0993 51.7836 20.0993C50.8153 20.1105 49.8559 19.9158 48.9707 19.5285C48.0855 19.1412 47.2953 18.5704 46.6538 17.8549C46.0222 17.1427 45.5293 16.3216 45.1999 15.433C44.8465 14.4937 44.6687 13.499 44.675 12.4971V12.4272C44.6675 11.4314 44.8454 10.4427 45.1999 9.51027C45.5348 8.62729 46.0337 7.81362 46.671 7.11096C47.3005 6.4203 48.0699 5.86746 48.9294 5.48813C49.8269 5.09203 50.8005 4.89162 51.7836 4.90058C52.9398 4.88306 54.0843 5.13144 55.1263 5.62604C56.1893 6.15798 57.1729 6.83184 58.0494 7.62861L61.4802 3.72738C60.917 3.17483 60.3083 2.66931 59.6604 2.21601C58.9951 1.74648 58.2795 1.35052 57.5265 1.03525C56.6978 0.696187 55.8356 0.442933 54.9539 0.279559C53.9209 0.0871942 52.8713 -0.0051862 51.82 0.00373379C50.0424 -0.0186045 48.2787 0.316293 46.6365 0.988015C45.1257 1.60943 43.7575 2.52507 42.6139 3.68015C41.4894 4.8249 40.5979 6.17166 39.9876 7.6475C39.3508 9.18726 39.0292 10.8361 39.0414 12.499V12.5689C39.0302 14.2372 39.3518 15.8914 39.9876 17.4374C40.5879 18.9175 41.483 20.2638 42.6201 21.3966C43.7572 22.5294 45.1132 23.4258 46.6078 24.0327C48.1934 24.6858 49.8968 25.0149 51.6151 25C52.6963 25.0098 53.7758 24.9117 54.837 24.7071C56.6151 24.356 58.2829 23.5925 59.7025 22.4797C60.4005 21.9295 61.0562 21.329 61.6641 20.6831H61.6564Z" fill="#002C46"></path>
  <path class="letter-main" d="M84.5177 5.31822V0.413818H64.2109V5.31822H71.6682V24.5845H77.0605V5.31822H84.5177Z" fill="#002C46"></path>
  <path class="letter-main" d="M132.589 6.41203L135.581 10.5041L143 0.419434H136.997L132.589 6.41203Z" fill="#002C46"></path>
  <path class="letter-alt" d="M134.325 12.5104L125.95 0.419434H120.008L128.381 12.5104L120.008 24.6203H125.95L134.325 12.5104Z" fill="#A5B4B8"></path>
  <path class="letter-main" d="M136.997 24.6203H143L135.56 14.5356L132.566 18.6277L136.997 24.6203Z" fill="#002C46"></path>
</svg>
