<?xml version="1.0" encoding="utf-8"?>
<!-- Generator: Adobe Illustrator 26.0.3, SVG Export Plug-In . SVG Version: 6.00 Build 0)  -->
<svg version="1.1" id="Calque_1" xmlns="http://www.w3.org/2000/svg" width="170" height="50" xmlns:xlink="http://www.w3.org/1999/xlink" x="0px" y="0px"
	 viewBox="0 0 399 118" style="enable-background:new 0 0 399 118;" xml:space="preserve">
<style type="text/css">
	.st0{fill:#272D43;}
</style>
<g>
	<g>
		<path class="st0" d="M94.6,53.4C94.4,52.6,90,34.6,80.2,25c-1.2-1.2-3.1-1.2-4.2,0c-1,1.2-2.5,1.8-4.1,1.6
			c-6-0.8-14.3-11.6-18.1-18.2c-0.4-0.7-1-1.2-1.8-1.4c-1.3-0.3-2.7,0.2-3.4,1.4C44.8,15,36.5,25.8,30.5,26.6
			c-1.5,0.2-3.1-0.4-4.1-1.6c-1.2-1.2-3.1-1.2-4.2,0C12.4,34.6,8,52.7,7.8,53.4c-0.2,0.8,0,1.6,0.4,2.3c0.1,0.1,8.6,13.7,17.9,27.1
			c19.3,28,22.8,28.3,25,28.3h0.3c2.2,0,5.6,0,25-28.3c9.2-13.4,17.8-27,17.9-27.1C94.6,55,94.8,54.1,94.6,53.4z M54.2,19.6
			c4.3,5.6,10.5,12,16.9,12.8c2.3,0.3,4.7-0.1,6.7-1.3c5.3,6.3,8.6,15.5,10.1,20.4H54.3L54.2,19.6L54.2,19.6z M24.6,31.2
			c2,1.2,4.4,1.7,6.7,1.3c6.3-0.8,12.4-7.1,16.7-12.6v31.7H14.5C16.1,46.7,19.4,37.4,24.6,31.2z M16.5,57.5H48V102
			C41.4,94.8,28.4,76.1,16.5,57.5z M54.2,102.2V57.5H86C73.9,76.3,60.8,95.1,54.2,102.2z"/>
		<polygon class="st0" points="42.2,32.2 27,45.4 42.2,45.4 		"/>
		<polygon class="st0" points="27,63.5 42.2,77.4 42.2,63.5 		"/>
		<polygon class="st0" points="60.1,32.2 60.1,45.4 75.3,45.4 		"/>
		<polygon class="st0" points="60.1,63.5 60.1,77.4 75.3,63.5 		"/>
	</g>
	<g id="Group_61_1_">
		<path id="Path_44_1_" class="st0" d="M112.7,76.5c-0.3,0-0.6-0.1-0.8-0.3c-0.2-0.2-0.3-0.5-0.3-0.8c0-0.2,0.1-0.4,0.2-0.6
			l11.6-16.9l-10.9-16.1c-0.1-0.2-0.2-0.4-0.2-0.6c0-0.3,0.1-0.6,0.3-0.8c0.2-0.2,0.5-0.3,0.8-0.3h5.5c0.7,0,1.3,0.4,1.6,1l7.6,11.1
			l7.6-11.1c0.3-0.6,0.9-1,1.6-1h5.1c0.3,0,0.6,0.1,0.8,0.3s0.3,0.5,0.3,0.8c0,0.2-0.1,0.4-0.2,0.6l-10.9,16.1L144,74.8
			c0.1,0.2,0.2,0.4,0.2,0.6c0,0.6-0.4,1.1-1,1.1c0,0,0,0-0.1,0h-5.6c-0.7,0-1.3-0.4-1.6-0.9l-8.2-11.7l-8.1,11.7
			c-0.4,0.6-1,0.9-1.6,0.9C118,76.5,112.7,76.5,112.7,76.5z M175.5,77c-4.8,0-8.5-1.2-11.1-3.7s-4.1-5.9-4.3-10.3c0-1,0-2.6,0-4.8
			s0-3.8,0-4.8c0.1-4.3,1.6-7.7,4.3-10.1s6.4-3.7,11.1-3.7c2.8-0.1,5.6,0.5,8.2,1.6c2.1,0.9,3.9,2.3,5.2,4.1c1.1,1.4,1.7,3,1.9,4.8
			c0,0.3-0.1,0.6-0.3,0.8s-0.5,0.3-0.8,0.3h-5.5c-0.3,0-0.6-0.1-0.8-0.2c-0.2-0.2-0.4-0.4-0.5-0.7c-0.5-1.3-1.4-2.5-2.5-3.3
			c-1.5-1-3.2-1.5-4.9-1.4c-2.1-0.1-4.1,0.6-5.7,1.9c-1.4,1.3-2.1,3.4-2.2,6.1c0,1,0,2.5,0,4.6c0,2.1,0,3.5,0,4.6
			c0.1,2.8,0.8,4.9,2.2,6.2c1.6,1.4,3.6,2.1,5.7,2c2.2,0.1,4.3-0.6,5.9-2c1.5-1.3,2.2-3.3,2.2-5.9v-1.6h-6.3c-0.7,0-1.2-0.5-1.2-1.2
			l0,0v-2.9c0-0.7,0.5-1.2,1.2-1.2l0,0h12.5c0.4,0,0.7,0.1,0.9,0.4c0.2,0.2,0.4,0.5,0.4,0.9V63c0.1,2.6-0.6,5.2-1.9,7.5
			c-1.3,2.1-3.2,3.9-5.5,4.9C181.1,76.5,178.3,77.1,175.5,77L175.5,77z M225.8,77c-4.7,0-8.4-1.2-11-3.6s-3.9-6-3.9-10.9V41.4
			c0-0.3,0.1-0.7,0.3-0.9c0.2-0.3,0.6-0.4,0.9-0.4h4.8c0.7,0,1.3,0.5,1.3,1.2v0.1v21.2c0,2.7,0.7,4.8,2,6.2c3.2,2.8,7.9,2.8,11.1,0
			c1.3-1.4,2-3.4,2-6.2V41.4c0-0.3,0.1-0.7,0.4-0.9c0.2-0.2,0.6-0.4,0.9-0.4h4.8c0.3,0,0.7,0.1,0.9,0.4c0.2,0.3,0.4,0.6,0.3,0.9
			v21.2c0,4.8-1.3,8.5-3.9,10.9C234.1,75.8,230.5,77,225.8,77L225.8,77z M258.9,76.5c-0.6,0-1.1-0.4-1.1-1c0,0,0,0,0-0.1l0.1-0.5
			l12.5-33.5c0.3-0.8,1-1.3,1.9-1.3h5.7c0.8,0,1.6,0.5,1.9,1.3l12.5,33.5l0.1,0.5c0,0.3-0.1,0.6-0.3,0.8c-0.2,0.2-0.5,0.3-0.8,0.3
			h-4.7c-0.7,0-1.3-0.4-1.5-1l-2.4-6.3h-15.4l-2.4,6.3c-0.2,0.6-0.8,1-1.5,1L258.9,76.5z M269.2,63.2H281l-5.9-16L269.2,63.2z
			 M312,76.5c-0.3,0-0.7-0.1-0.9-0.4c-0.2-0.2-0.4-0.6-0.4-0.9V41.4c0-0.3,0.1-0.7,0.3-0.9c0.2-0.3,0.6-0.4,0.9-0.4h13.5
			c4.3,0,7.6,1,10,3s3.6,4.8,3.6,8.4c0.1,2.3-0.6,4.5-1.8,6.4c-1.3,1.8-3,3.1-5.1,3.7l7.5,13.2c0.1,0.2,0.2,0.4,0.2,0.6
			c0,0.3-0.1,0.6-0.3,0.8c-0.2,0.2-0.5,0.3-0.8,0.3H334c-0.5,0-0.9-0.1-1.3-0.4c-0.3-0.3-0.6-0.6-0.8-1l-6.6-12.3h-7.1v12.5
			c0,0.3-0.1,0.7-0.4,0.9c-0.2,0.2-0.6,0.4-0.9,0.4L312,76.5z M325.3,56.9c1.7,0.1,3.3-0.4,4.7-1.4c1.1-1,1.7-2.5,1.6-4
			c0.1-1.5-0.5-3-1.6-4.1c-1.3-1-3-1.6-4.7-1.4h-7.2v10.9H325.3z M360.6,76.5c-0.3,0-0.7-0.1-0.9-0.4c-0.2-0.2-0.4-0.6-0.4-0.9V41.4
			c0-0.3,0.1-0.7,0.3-0.9c0.2-0.3,0.6-0.4,0.9-0.4h12.7c10.2,0,15.4,4.7,15.7,14.1c0.1,2,0.1,3.4,0.1,4.1s0,2-0.1,4
			c-0.1,4.9-1.5,8.4-3.9,10.7c-2.5,2.3-6.3,3.5-11.5,3.5L360.6,76.5z M373.2,70.5c2.9,0,5-0.6,6.2-1.9c1.3-1.3,1.9-3.4,2-6.4
			c0.1-2.1,0.1-3.4,0.1-3.9s0-1.8-0.1-3.9c-0.1-2.9-0.8-4.9-2.1-6.3c-1.4-1.3-3.5-2-6.4-2h-6.3v24.3h6.6V70.5z"/>
	</g>
</g>
</svg>
